<mxfile host="Electron" modified="2024-02-04T17:53:04.588Z" agent="Mozilla/5.0 (Windows NT 10.0; Win64; x64) AppleWebKit/537.36 (KHTML, like Gecko) draw.io/22.0.2 Chrome/114.0.5735.289 Electron/25.8.4 Safari/537.36" etag="xW5cvyHT6DJsoIEoYQXg" version="22.0.2" type="device">
  <diagram name="Page-1" id="FcjTnN1osP1dsOTYfN1-">
    <mxGraphModel dx="414" dy="242" grid="1" gridSize="10" guides="1" tooltips="1" connect="1" arrows="1" fold="1" page="1" pageScale="1" pageWidth="827" pageHeight="1169" math="0" shadow="0">
      <root>
        <mxCell id="0" />
        <mxCell id="1" parent="0" />
        <mxCell id="n3yEZyMTPkoygYLhiBQ4-12" value="" style="sketch=0;points=[[0,0,0],[0.25,0,0],[0.5,0,0],[0.75,0,0],[1,0,0],[0,1,0],[0.25,1,0],[0.5,1,0],[0.75,1,0],[1,1,0],[0,0.25,0],[0,0.5,0],[0,0.75,0],[1,0.25,0],[1,0.5,0],[1,0.75,0]];outlineConnect=0;fontColor=#232F3E;fillColor=#7AA116;strokeColor=#ffffff;dashed=0;verticalLabelPosition=bottom;verticalAlign=top;align=center;html=1;fontSize=12;fontStyle=0;aspect=fixed;shape=mxgraph.aws4.resourceIcon;resIcon=mxgraph.aws4.iot_core;" parent="1" vertex="1">
          <mxGeometry x="120" y="79.83" width="40" height="40" as="geometry" />
        </mxCell>
        <mxCell id="n3yEZyMTPkoygYLhiBQ4-23" value="" style="endArrow=none;html=1;rounded=0;strokeColor=#AD105C;dashed=1;" parent="1" source="n3yEZyMTPkoygYLhiBQ4-16" edge="1">
          <mxGeometry width="50" height="50" relative="1" as="geometry">
            <mxPoint x="139.82" y="709.83" as="sourcePoint" />
            <mxPoint x="139.66000000000003" y="129.83" as="targetPoint" />
          </mxGeometry>
        </mxCell>
        <mxCell id="n3yEZyMTPkoygYLhiBQ4-34" value="IoT Core" style="text;html=1;strokeColor=none;fillColor=none;align=center;verticalAlign=middle;whiteSpace=wrap;rounded=0;" parent="1" vertex="1">
          <mxGeometry x="110" y="119.83" width="60" height="10" as="geometry" />
        </mxCell>
        <mxCell id="n3yEZyMTPkoygYLhiBQ4-152" value="" style="endArrow=none;html=1;rounded=0;" parent="1" edge="1">
          <mxGeometry width="50" height="50" relative="1" as="geometry">
            <mxPoint x="200" y="120" as="sourcePoint" />
            <mxPoint x="200" y="60" as="targetPoint" />
          </mxGeometry>
        </mxCell>
        <mxCell id="n3yEZyMTPkoygYLhiBQ4-153" value="Device" style="text;html=1;strokeColor=none;fillColor=none;align=center;verticalAlign=middle;whiteSpace=wrap;rounded=0;fontStyle=1;fontSize=13;" parent="1" vertex="1">
          <mxGeometry x="370" y="60" width="60" height="13" as="geometry" />
        </mxCell>
        <mxCell id="n3yEZyMTPkoygYLhiBQ4-154" value="AWS cloud" style="text;html=1;strokeColor=none;fillColor=none;align=center;verticalAlign=middle;whiteSpace=wrap;rounded=0;fontStyle=1;fontSize=13;" parent="1" vertex="1">
          <mxGeometry x="97.5" y="60" width="85" height="13" as="geometry" />
        </mxCell>
        <mxCell id="n3yEZyMTPkoygYLhiBQ4-16" value="" style="rounded=0;whiteSpace=wrap;html=1;fillColor=none;strokeColor=#AD105C;strokeWidth=1;" parent="1" vertex="1">
          <mxGeometry x="135" y="140" width="10" height="390" as="geometry" />
        </mxCell>
        <mxCell id="-JEkUFVNVaD4qIEH3NqO-3" value="CertificateRotator" style="rounded=0;whiteSpace=wrap;html=1;" parent="1" vertex="1">
          <mxGeometry x="500" y="79.83" width="120" height="40" as="geometry" />
        </mxCell>
        <mxCell id="-JEkUFVNVaD4qIEH3NqO-4" value="Publish" style="rounded=0;whiteSpace=wrap;html=1;" parent="1" vertex="1">
          <mxGeometry x="360" y="79.83000000000001" width="80" height="40" as="geometry" />
        </mxCell>
        <mxCell id="-JEkUFVNVaD4qIEH3NqO-5" value="Subscribe" style="rounded=0;whiteSpace=wrap;html=1;" parent="1" vertex="1">
          <mxGeometry x="240" y="79.83000000000001" width="80" height="40" as="geometry" />
        </mxCell>
        <mxCell id="-JEkUFVNVaD4qIEH3NqO-6" value="" style="endArrow=none;html=1;rounded=0;strokeColor=#AD105C;dashed=1;" parent="1" source="-JEkUFVNVaD4qIEH3NqO-9" edge="1">
          <mxGeometry width="50" height="50" relative="1" as="geometry">
            <mxPoint x="280" y="760" as="sourcePoint" />
            <mxPoint x="280" y="120" as="targetPoint" />
          </mxGeometry>
        </mxCell>
        <mxCell id="-JEkUFVNVaD4qIEH3NqO-10" value="" style="sketch=0;outlineConnect=0;fontColor=#232F3E;gradientColor=none;fillColor=#DD344C;strokeColor=none;dashed=0;verticalLabelPosition=bottom;verticalAlign=top;align=center;html=1;fontSize=12;fontStyle=0;aspect=fixed;pointerEvents=1;shape=mxgraph.aws4.certificate_manager_2;" parent="1" vertex="1">
          <mxGeometry x="640" y="252.57" width="40" height="36.93" as="geometry" />
        </mxCell>
        <mxCell id="-JEkUFVNVaD4qIEH3NqO-11" value="" style="sketch=0;outlineConnect=0;fontColor=#232F3E;gradientColor=none;fillColor=#7AA116;strokeColor=none;dashed=0;verticalLabelPosition=bottom;verticalAlign=top;align=center;html=1;fontSize=12;fontStyle=0;aspect=fixed;pointerEvents=1;shape=mxgraph.aws4.certificate_manager;" parent="1" vertex="1">
          <mxGeometry x="640" y="400.0000000000001" width="40" height="52.88" as="geometry" />
        </mxCell>
        <mxCell id="-JEkUFVNVaD4qIEH3NqO-12" value="" style="sketch=0;outlineConnect=0;fontColor=#232F3E;gradientColor=none;fillColor=#7AA116;strokeColor=none;dashed=0;verticalLabelPosition=bottom;verticalAlign=top;align=center;html=1;fontSize=12;fontStyle=0;aspect=fixed;pointerEvents=1;shape=mxgraph.aws4.addon;" parent="1" vertex="1">
          <mxGeometry x="640" y="209.5" width="40" height="20.51" as="geometry" />
        </mxCell>
        <mxCell id="-JEkUFVNVaD4qIEH3NqO-13" value="" style="endArrow=classic;html=1;rounded=0;strokeColor=#AD105C;entryX=0;entryY=0;entryDx=0;entryDy=0;" parent="1" target="-JEkUFVNVaD4qIEH3NqO-9" edge="1">
          <mxGeometry width="50" height="50" relative="1" as="geometry">
            <mxPoint x="145" y="170" as="sourcePoint" />
            <mxPoint x="280" y="190" as="targetPoint" />
          </mxGeometry>
        </mxCell>
        <mxCell id="-JEkUFVNVaD4qIEH3NqO-15" value="&lt;div&gt;_on_stream_event(&lt;/div&gt;&lt;div&gt;&lt;span style=&quot;white-space: pre;&quot;&gt;&#x9;&lt;/span&gt;event[&quot;device/thingName/&lt;b&gt;csr_req&lt;/b&gt;&quot;,&amp;nbsp;&lt;span style=&quot;background-color: initial;&quot;&gt;&quot;&quot;]&lt;/span&gt;&lt;span style=&quot;background-color: initial;&quot;&gt;)&lt;/span&gt;&lt;/div&gt;" style="text;html=1;strokeColor=none;fillColor=none;align=left;verticalAlign=middle;whiteSpace=wrap;rounded=0;fontSize=10;" parent="1" vertex="1">
          <mxGeometry x="160" y="150" width="197.5" height="28" as="geometry" />
        </mxCell>
        <mxCell id="-JEkUFVNVaD4qIEH3NqO-16" value="" style="endArrow=none;html=1;rounded=0;strokeColor=#AD105C;dashed=1;entryX=0.5;entryY=1;entryDx=0;entryDy=0;" parent="1" source="-JEkUFVNVaD4qIEH3NqO-23" target="-JEkUFVNVaD4qIEH3NqO-3" edge="1">
          <mxGeometry width="50" height="50" relative="1" as="geometry">
            <mxPoint x="564.71" y="759.83" as="sourcePoint" />
            <mxPoint x="564.71" y="119.83000000000001" as="targetPoint" />
          </mxGeometry>
        </mxCell>
        <mxCell id="-JEkUFVNVaD4qIEH3NqO-17" value="" style="endArrow=none;html=1;rounded=0;strokeColor=#AD105C;dashed=1;exitX=0.5;exitY=0;exitDx=0;exitDy=0;entryX=0.5;entryY=1;entryDx=0;entryDy=0;" parent="1" source="-JEkUFVNVaD4qIEH3NqO-35" target="-JEkUFVNVaD4qIEH3NqO-9" edge="1">
          <mxGeometry width="50" height="50" relative="1" as="geometry">
            <mxPoint x="280" y="785" as="sourcePoint" />
            <mxPoint x="280" y="365.00000000000006" as="targetPoint" />
          </mxGeometry>
        </mxCell>
        <mxCell id="-JEkUFVNVaD4qIEH3NqO-9" value="" style="rounded=0;whiteSpace=wrap;html=1;fillColor=none;strokeColor=#AD105C;strokeWidth=1;" parent="1" vertex="1">
          <mxGeometry x="275" y="190" width="10" height="130" as="geometry" />
        </mxCell>
        <mxCell id="-JEkUFVNVaD4qIEH3NqO-18" value="" style="endArrow=classic;html=1;rounded=0;strokeColor=#AD105C;entryX=0;entryY=0;entryDx=0;entryDy=0;" parent="1" target="-JEkUFVNVaD4qIEH3NqO-23" edge="1">
          <mxGeometry width="50" height="50" relative="1" as="geometry">
            <mxPoint x="285" y="200" as="sourcePoint" />
            <mxPoint x="555" y="199.00000000000023" as="targetPoint" />
          </mxGeometry>
        </mxCell>
        <mxCell id="-JEkUFVNVaD4qIEH3NqO-19" value="" style="endArrow=none;html=1;rounded=0;strokeColor=#AD105C;dashed=1;" parent="1" source="-JEkUFVNVaD4qIEH3NqO-57" edge="1">
          <mxGeometry width="50" height="50" relative="1" as="geometry">
            <mxPoint x="399.71" y="669.83" as="sourcePoint" />
            <mxPoint x="399.71" y="119.83" as="targetPoint" />
          </mxGeometry>
        </mxCell>
        <mxCell id="-JEkUFVNVaD4qIEH3NqO-21" value="&lt;div&gt;callback_message(&lt;/div&gt;&lt;div&gt;&lt;span style=&quot;white-space: pre;&quot;&gt;&#x9;&lt;/span&gt;&quot;device/thingName/&lt;b&gt;csr_req&lt;/b&gt;&quot;,&lt;/div&gt;&lt;div&gt;&lt;span style=&quot;white-space: pre;&quot;&gt;&#x9;&lt;/span&gt;&quot;&quot;&lt;span style=&quot;background-color: initial;&quot;&gt;)&lt;/span&gt;&lt;/div&gt;" style="text;html=1;strokeColor=none;fillColor=none;align=left;verticalAlign=middle;whiteSpace=wrap;rounded=0;fontSize=10;" parent="1" vertex="1">
          <mxGeometry x="405" y="160" width="148.75" height="40" as="geometry" />
        </mxCell>
        <mxCell id="-JEkUFVNVaD4qIEH3NqO-22" value="" style="endArrow=classic;html=1;rounded=0;strokeColor=#AD105C;" parent="1" edge="1">
          <mxGeometry width="50" height="50" relative="1" as="geometry">
            <mxPoint x="565" y="210" as="sourcePoint" />
            <mxPoint x="565" y="280" as="targetPoint" />
            <Array as="points">
              <mxPoint x="590" y="210" />
              <mxPoint x="590" y="280" />
            </Array>
          </mxGeometry>
        </mxCell>
        <mxCell id="-JEkUFVNVaD4qIEH3NqO-24" value="" style="endArrow=none;html=1;rounded=0;strokeColor=#AD105C;dashed=1;entryX=0.5;entryY=1;entryDx=0;entryDy=0;" parent="1" source="-JEkUFVNVaD4qIEH3NqO-43" target="-JEkUFVNVaD4qIEH3NqO-23" edge="1">
          <mxGeometry width="50" height="50" relative="1" as="geometry">
            <mxPoint x="564.71" y="804.83" as="sourcePoint" />
            <mxPoint x="560" y="370" as="targetPoint" />
          </mxGeometry>
        </mxCell>
        <mxCell id="-JEkUFVNVaD4qIEH3NqO-23" value="" style="rounded=0;whiteSpace=wrap;html=1;fillColor=none;strokeColor=#AD105C;strokeWidth=1;" parent="1" vertex="1">
          <mxGeometry x="555" y="200" width="10" height="120" as="geometry" />
        </mxCell>
        <mxCell id="-JEkUFVNVaD4qIEH3NqO-25" value="&lt;div&gt;create_csr()&lt;/div&gt;" style="text;html=1;strokeColor=none;fillColor=none;align=left;verticalAlign=middle;whiteSpace=wrap;rounded=0;fontSize=10;" parent="1" vertex="1">
          <mxGeometry x="570" y="198" width="60" height="11" as="geometry" />
        </mxCell>
        <mxCell id="-JEkUFVNVaD4qIEH3NqO-26" value="&lt;div&gt;CSR&lt;/div&gt;" style="text;html=1;strokeColor=none;fillColor=none;align=center;verticalAlign=middle;whiteSpace=wrap;rounded=0;fontSize=10;" parent="1" vertex="1">
          <mxGeometry x="630" y="289.49999999999994" width="60" height="11" as="geometry" />
        </mxCell>
        <mxCell id="-JEkUFVNVaD4qIEH3NqO-27" value="" style="endArrow=classic;html=1;rounded=0;strokeColor=#AD105C;dashed=1;" parent="1" edge="1">
          <mxGeometry width="50" height="50" relative="1" as="geometry">
            <mxPoint x="590" y="270.04" as="sourcePoint" />
            <mxPoint x="640" y="270.04" as="targetPoint" />
          </mxGeometry>
        </mxCell>
        <mxCell id="-JEkUFVNVaD4qIEH3NqO-28" value="&lt;div&gt;New private key&lt;/div&gt;" style="text;html=1;strokeColor=none;fillColor=none;align=center;verticalAlign=middle;whiteSpace=wrap;rounded=0;fontSize=10;" parent="1" vertex="1">
          <mxGeometry x="620" y="230.01" width="80" height="11" as="geometry" />
        </mxCell>
        <mxCell id="-JEkUFVNVaD4qIEH3NqO-30" value="" style="endArrow=classic;html=1;rounded=0;strokeColor=#AD105C;dashed=1;" parent="1" edge="1">
          <mxGeometry width="50" height="50" relative="1" as="geometry">
            <mxPoint x="590" y="219.56" as="sourcePoint" />
            <mxPoint x="640" y="219.56" as="targetPoint" />
          </mxGeometry>
        </mxCell>
        <mxCell id="-JEkUFVNVaD4qIEH3NqO-31" value="" style="endArrow=classic;html=1;rounded=0;strokeColor=#AD105C;entryX=1;entryY=0;entryDx=0;entryDy=0;" parent="1" target="-JEkUFVNVaD4qIEH3NqO-57" edge="1">
          <mxGeometry width="50" height="50" relative="1" as="geometry">
            <mxPoint x="555" y="290" as="sourcePoint" />
            <mxPoint x="400" y="320" as="targetPoint" />
          </mxGeometry>
        </mxCell>
        <mxCell id="-JEkUFVNVaD4qIEH3NqO-32" value="&lt;div&gt;publish_to_topic(&lt;/div&gt;&lt;div&gt;&lt;span style=&quot;white-space: pre;&quot;&gt;&#x9;&lt;/span&gt;&quot;device/thingName/&lt;b&gt;csr_res&lt;/b&gt;&quot;,&lt;/div&gt;&lt;div&gt;&lt;span style=&quot;white-space: pre;&quot;&gt;&#x9;&lt;/span&gt;&quot;&lt;b&gt;CSR&lt;/b&gt;&quot;)&lt;/div&gt;" style="text;html=1;strokeColor=none;fillColor=none;align=left;verticalAlign=middle;whiteSpace=wrap;rounded=0;fontSize=10;" parent="1" vertex="1">
          <mxGeometry x="403.75" y="250" width="150" height="40.49" as="geometry" />
        </mxCell>
        <mxCell id="-JEkUFVNVaD4qIEH3NqO-33" value="" style="endArrow=classic;html=1;rounded=0;strokeColor=#AD105C;entryX=1.022;entryY=0.345;entryDx=0;entryDy=0;entryPerimeter=0;" parent="1" edge="1">
          <mxGeometry width="50" height="50" relative="1" as="geometry">
            <mxPoint x="394.78" y="299.77" as="sourcePoint" />
            <mxPoint x="145.00000000000003" y="299.52" as="targetPoint" />
          </mxGeometry>
        </mxCell>
        <mxCell id="-JEkUFVNVaD4qIEH3NqO-34" value="&lt;div&gt;publish_to_iot_core(&lt;/div&gt;&lt;div&gt;&lt;span style=&quot;white-space: pre;&quot;&gt;&#x9;&lt;/span&gt;&quot;device/thingName/&lt;b&gt;csr_res&lt;/b&gt;&quot;,&lt;/div&gt;&lt;div&gt;&lt;span style=&quot;white-space: pre;&quot;&gt;&#x9;&lt;/span&gt;&quot;&lt;b&gt;CSR&lt;/b&gt;&quot;)&lt;/div&gt;" style="text;html=1;strokeColor=none;fillColor=none;align=left;verticalAlign=middle;whiteSpace=wrap;rounded=0;fontSize=10;" parent="1" vertex="1">
          <mxGeometry x="152.5" y="260" width="150" height="40" as="geometry" />
        </mxCell>
        <mxCell id="-JEkUFVNVaD4qIEH3NqO-36" value="" style="endArrow=none;html=1;rounded=0;strokeColor=#AD105C;dashed=1;" parent="1" target="-JEkUFVNVaD4qIEH3NqO-35" edge="1">
          <mxGeometry width="50" height="50" relative="1" as="geometry">
            <mxPoint x="280" y="530" as="sourcePoint" />
            <mxPoint x="280" y="230" as="targetPoint" />
          </mxGeometry>
        </mxCell>
        <mxCell id="-JEkUFVNVaD4qIEH3NqO-35" value="" style="rounded=0;whiteSpace=wrap;html=1;fillColor=none;strokeColor=#AD105C;strokeWidth=1;" parent="1" vertex="1">
          <mxGeometry x="275" y="380" width="10" height="130" as="geometry" />
        </mxCell>
        <mxCell id="-JEkUFVNVaD4qIEH3NqO-37" value="" style="endArrow=classic;html=1;rounded=0;strokeColor=#AD105C;entryX=0;entryY=0;entryDx=0;entryDy=0;" parent="1" edge="1">
          <mxGeometry width="50" height="50" relative="1" as="geometry">
            <mxPoint x="145" y="380" as="sourcePoint" />
            <mxPoint x="275" y="379.99999999999994" as="targetPoint" />
          </mxGeometry>
        </mxCell>
        <mxCell id="-JEkUFVNVaD4qIEH3NqO-38" value="&lt;div&gt;_on_stream_event(&lt;/div&gt;&lt;div&gt;&lt;span style=&quot;white-space: pre;&quot;&gt;&#x9;&lt;/span&gt;event[&quot;device/&lt;span style=&quot;border-color: var(--border-color);&quot;&gt;thingName&lt;/span&gt;/&lt;b&gt;crt&lt;/b&gt;&quot;,&lt;span style=&quot;background-color: initial; white-space: pre;&quot;&gt;&#x9;&lt;/span&gt;&lt;span style=&quot;background-color: initial;&quot;&gt;&quot;&lt;/span&gt;&lt;b style=&quot;background-color: initial;&quot;&gt;certPEM&lt;/b&gt;&lt;span style=&quot;background-color: initial;&quot;&gt;&quot;])&lt;/span&gt;&lt;/div&gt;" style="text;html=1;strokeColor=none;fillColor=none;align=left;verticalAlign=middle;whiteSpace=wrap;rounded=0;fontSize=10;" parent="1" vertex="1">
          <mxGeometry x="152.5" y="354" width="160" height="20" as="geometry" />
        </mxCell>
        <mxCell id="-JEkUFVNVaD4qIEH3NqO-41" value="" style="endArrow=classic;html=1;rounded=0;strokeColor=#AD105C;entryX=0;entryY=0;entryDx=0;entryDy=0;" parent="1" target="-JEkUFVNVaD4qIEH3NqO-43" edge="1">
          <mxGeometry width="50" height="50" relative="1" as="geometry">
            <mxPoint x="285" y="390" as="sourcePoint" />
            <mxPoint x="615" y="424.43" as="targetPoint" />
          </mxGeometry>
        </mxCell>
        <mxCell id="-JEkUFVNVaD4qIEH3NqO-44" value="" style="endArrow=none;html=1;rounded=0;strokeColor=#AD105C;dashed=1;" parent="1" target="-JEkUFVNVaD4qIEH3NqO-43" edge="1">
          <mxGeometry width="50" height="50" relative="1" as="geometry">
            <mxPoint x="560" y="530" as="sourcePoint" />
            <mxPoint x="580" y="340" as="targetPoint" />
          </mxGeometry>
        </mxCell>
        <mxCell id="-JEkUFVNVaD4qIEH3NqO-43" value="" style="rounded=0;whiteSpace=wrap;html=1;fillColor=none;strokeColor=#AD105C;strokeWidth=1;" parent="1" vertex="1">
          <mxGeometry x="555" y="390" width="10" height="120" as="geometry" />
        </mxCell>
        <mxCell id="-JEkUFVNVaD4qIEH3NqO-45" value="&lt;div&gt;callback_message(&lt;/div&gt;&lt;div&gt;&lt;span style=&quot;white-space: pre;&quot;&gt;&#x9;&lt;/span&gt;&quot;device/&lt;span style=&quot;border-color: var(--border-color);&quot;&gt;thingName&lt;/span&gt;/&lt;b&gt;crt&lt;/b&gt;&quot;,&lt;/div&gt;&lt;div&gt;&lt;span style=&quot;white-space: pre;&quot;&gt;&#x9;&lt;/span&gt;&quot;&lt;b&gt;certPEM&lt;/b&gt;&quot;)&lt;/div&gt;" style="text;html=1;strokeColor=none;fillColor=none;align=left;verticalAlign=middle;whiteSpace=wrap;rounded=0;fontSize=10;" parent="1" vertex="1">
          <mxGeometry x="405" y="350" width="128.75" height="40" as="geometry" />
        </mxCell>
        <mxCell id="-JEkUFVNVaD4qIEH3NqO-47" value="" style="endArrow=classic;html=1;rounded=0;strokeColor=#AD105C;" parent="1" edge="1">
          <mxGeometry width="50" height="50" relative="1" as="geometry">
            <mxPoint x="565" y="400" as="sourcePoint" />
            <mxPoint x="565" y="440" as="targetPoint" />
            <Array as="points">
              <mxPoint x="590" y="400" />
              <mxPoint x="590" y="440" />
            </Array>
          </mxGeometry>
        </mxCell>
        <mxCell id="-JEkUFVNVaD4qIEH3NqO-48" value="&lt;div&gt;rotate_certificate(&quot;&lt;b&gt;certPEM&lt;/b&gt;&quot;)&lt;/div&gt;" style="text;html=1;strokeColor=none;fillColor=default;align=left;verticalAlign=middle;whiteSpace=wrap;rounded=0;fontSize=10;" parent="1" vertex="1">
          <mxGeometry x="572.5" y="385" width="130" height="11" as="geometry" />
        </mxCell>
        <mxCell id="-JEkUFVNVaD4qIEH3NqO-49" value="" style="endArrow=classic;html=1;rounded=0;strokeColor=#AD105C;dashed=1;" parent="1" edge="1">
          <mxGeometry width="50" height="50" relative="1" as="geometry">
            <mxPoint x="590" y="420" as="sourcePoint" />
            <mxPoint x="640" y="420" as="targetPoint" />
          </mxGeometry>
        </mxCell>
        <mxCell id="-JEkUFVNVaD4qIEH3NqO-50" value="&lt;div&gt;New certificate&lt;/div&gt;" style="text;html=1;strokeColor=none;fillColor=none;align=center;verticalAlign=middle;whiteSpace=wrap;rounded=0;fontSize=10;" parent="1" vertex="1">
          <mxGeometry x="625" y="454.5" width="70" height="11" as="geometry" />
        </mxCell>
        <mxCell id="-JEkUFVNVaD4qIEH3NqO-51" value="" style="endArrow=classic;html=1;rounded=0;strokeColor=#AD105C;exitX=0;exitY=1;exitDx=0;exitDy=0;entryX=1;entryY=0;entryDx=0;entryDy=0;" parent="1" edge="1">
          <mxGeometry width="50" height="50" relative="1" as="geometry">
            <mxPoint x="555" y="449.83" as="sourcePoint" />
            <mxPoint x="405" y="449.83" as="targetPoint" />
          </mxGeometry>
        </mxCell>
        <mxCell id="-JEkUFVNVaD4qIEH3NqO-52" value="&lt;div&gt;publish_to_topic(&lt;/div&gt;&lt;div&gt;&lt;span style=&quot;white-space: pre;&quot;&gt;&#x9;&lt;/span&gt;&quot;device/thingName/&lt;b&gt;crt_ack&lt;/b&gt;&quot;,&lt;/div&gt;&lt;div&gt;&lt;span style=&quot;white-space: pre;&quot;&gt;&#x9;&lt;/span&gt;&quot;&quot;)&lt;/div&gt;" style="text;html=1;strokeColor=none;fillColor=none;align=left;verticalAlign=middle;whiteSpace=wrap;rounded=0;fontSize=10;" parent="1" vertex="1">
          <mxGeometry x="403.75" y="409.81" width="150" height="40" as="geometry" />
        </mxCell>
        <mxCell id="-JEkUFVNVaD4qIEH3NqO-53" value="" style="endArrow=classic;html=1;rounded=0;strokeColor=#AD105C;" parent="1" edge="1">
          <mxGeometry width="50" height="50" relative="1" as="geometry">
            <mxPoint x="395" y="460" as="sourcePoint" />
            <mxPoint x="145" y="460" as="targetPoint" />
          </mxGeometry>
        </mxCell>
        <mxCell id="-JEkUFVNVaD4qIEH3NqO-54" value="&lt;div&gt;publish_to_iot_core(&lt;/div&gt;&lt;div&gt;&lt;span style=&quot;white-space: pre;&quot;&gt;&#x9;&lt;/span&gt;&quot;device/thingName/&lt;b style=&quot;border-color: var(--border-color);&quot;&gt;crt_ack&lt;/b&gt;&quot;,&lt;/div&gt;&lt;div&gt;&lt;span style=&quot;white-space: pre;&quot;&gt;&#x9;&lt;/span&gt;&quot;&quot;)&lt;/div&gt;" style="text;html=1;strokeColor=none;fillColor=none;align=left;verticalAlign=middle;whiteSpace=wrap;rounded=0;fontSize=10;" parent="1" vertex="1">
          <mxGeometry x="152.5" y="420" width="150" height="40" as="geometry" />
        </mxCell>
        <mxCell id="-JEkUFVNVaD4qIEH3NqO-55" value="" style="sketch=0;outlineConnect=0;fontColor=#232F3E;gradientColor=none;fillColor=#7AA116;strokeColor=none;dashed=0;verticalLabelPosition=bottom;verticalAlign=top;align=center;html=1;fontSize=12;fontStyle=0;aspect=fixed;pointerEvents=1;shape=mxgraph.aws4.iot_greengrass_component_nucleus;" parent="1" vertex="1">
          <mxGeometry x="640" y="479" width="40" height="40" as="geometry" />
        </mxCell>
        <mxCell id="-JEkUFVNVaD4qIEH3NqO-56" value="&lt;div&gt;Greengrass core&lt;/div&gt;" style="text;html=1;strokeColor=none;fillColor=none;align=center;verticalAlign=middle;whiteSpace=wrap;rounded=0;fontSize=10;" parent="1" vertex="1">
          <mxGeometry x="617.5" y="519" width="85" height="11" as="geometry" />
        </mxCell>
        <mxCell id="-JEkUFVNVaD4qIEH3NqO-59" value="" style="endArrow=none;html=1;rounded=0;strokeColor=#AD105C;dashed=1;" parent="1" target="-JEkUFVNVaD4qIEH3NqO-58" edge="1">
          <mxGeometry width="50" height="50" relative="1" as="geometry">
            <mxPoint x="400" y="530" as="sourcePoint" />
            <mxPoint x="399.71" y="149.82999999999998" as="targetPoint" />
          </mxGeometry>
        </mxCell>
        <mxCell id="-JEkUFVNVaD4qIEH3NqO-58" value="" style="rounded=0;whiteSpace=wrap;html=1;fillColor=default;strokeColor=#AD105C;strokeWidth=1;" parent="1" vertex="1">
          <mxGeometry x="395" y="449.81" width="10" height="20" as="geometry" />
        </mxCell>
        <mxCell id="-JEkUFVNVaD4qIEH3NqO-60" value="" style="endArrow=classic;html=1;rounded=0;strokeColor=#AD105C;dashed=1;" parent="1" edge="1">
          <mxGeometry width="50" height="50" relative="1" as="geometry">
            <mxPoint x="565" y="500" as="sourcePoint" />
            <mxPoint x="640" y="500" as="targetPoint" />
          </mxGeometry>
        </mxCell>
        <mxCell id="-JEkUFVNVaD4qIEH3NqO-61" value="" style="endArrow=classic;html=1;rounded=0;strokeColor=#AD105C;entryX=1;entryY=1;entryDx=0;entryDy=0;dashed=1;" parent="1" target="-JEkUFVNVaD4qIEH3NqO-9" edge="1">
          <mxGeometry width="50" height="50" relative="1" as="geometry">
            <mxPoint x="555" y="320" as="sourcePoint" />
            <mxPoint x="285" y="365" as="targetPoint" />
          </mxGeometry>
        </mxCell>
        <mxCell id="-JEkUFVNVaD4qIEH3NqO-63" value="" style="endArrow=none;html=1;rounded=0;strokeColor=#AD105C;dashed=1;" parent="1" source="-JEkUFVNVaD4qIEH3NqO-58" target="-JEkUFVNVaD4qIEH3NqO-57" edge="1">
          <mxGeometry width="50" height="50" relative="1" as="geometry">
            <mxPoint x="400" y="495" as="sourcePoint" />
            <mxPoint x="399.71" y="129.82999999999998" as="targetPoint" />
          </mxGeometry>
        </mxCell>
        <mxCell id="-JEkUFVNVaD4qIEH3NqO-57" value="" style="rounded=0;whiteSpace=wrap;html=1;fillColor=default;strokeColor=#AD105C;strokeWidth=1;" parent="1" vertex="1">
          <mxGeometry x="395" y="290" width="10" height="20" as="geometry" />
        </mxCell>
        <mxCell id="-JEkUFVNVaD4qIEH3NqO-64" value="" style="endArrow=classic;html=1;rounded=0;strokeColor=#AD105C;entryX=1;entryY=0;entryDx=0;entryDy=0;dashed=1;" parent="1" edge="1">
          <mxGeometry width="50" height="50" relative="1" as="geometry">
            <mxPoint x="405" y="310" as="sourcePoint" />
            <mxPoint x="555" y="310" as="targetPoint" />
          </mxGeometry>
        </mxCell>
        <mxCell id="-JEkUFVNVaD4qIEH3NqO-65" value="" style="endArrow=classic;html=1;rounded=0;strokeColor=#AD105C;entryX=1;entryY=0;entryDx=0;entryDy=0;dashed=1;" parent="1" edge="1">
          <mxGeometry width="50" height="50" relative="1" as="geometry">
            <mxPoint x="405" y="469.81" as="sourcePoint" />
            <mxPoint x="555" y="469.81" as="targetPoint" />
          </mxGeometry>
        </mxCell>
        <mxCell id="-JEkUFVNVaD4qIEH3NqO-67" value="&lt;div&gt;Restrart&lt;/div&gt;" style="text;html=1;strokeColor=none;fillColor=none;align=left;verticalAlign=middle;whiteSpace=wrap;rounded=0;fontSize=10;" parent="1" vertex="1">
          <mxGeometry x="587.5" y="488" width="37.5" height="11" as="geometry" />
        </mxCell>
        <mxCell id="-JEkUFVNVaD4qIEH3NqO-68" value="" style="endArrow=classic;html=1;rounded=0;strokeColor=#AD105C;dashed=1;entryX=1;entryY=1;entryDx=0;entryDy=0;exitX=0;exitY=1;exitDx=0;exitDy=0;" parent="1" source="-JEkUFVNVaD4qIEH3NqO-43" target="-JEkUFVNVaD4qIEH3NqO-35" edge="1">
          <mxGeometry width="50" height="50" relative="1" as="geometry">
            <mxPoint x="553.75" y="510" as="sourcePoint" />
            <mxPoint x="290" y="510" as="targetPoint" />
          </mxGeometry>
        </mxCell>
        <mxCell id="lTmDRrwS3Fb5ej10DpKZ-8" value="" style="endArrow=none;html=1;rounded=0;shape=link;strokeColor=#666666;" parent="1" source="lTmDRrwS3Fb5ej10DpKZ-10" edge="1">
          <mxGeometry width="50" height="50" relative="1" as="geometry">
            <mxPoint x="120" y="339.96000000000004" as="sourcePoint" />
            <mxPoint x="620" y="339.96000000000004" as="targetPoint" />
          </mxGeometry>
        </mxCell>
        <mxCell id="58K5-g8gVqhy0GrbCxnm-5" value="" style="endArrow=none;html=1;rounded=0;shape=link;strokeColor=#666666;" parent="1" target="58K5-g8gVqhy0GrbCxnm-4" edge="1">
          <mxGeometry width="50" height="50" relative="1" as="geometry">
            <mxPoint x="120" y="339.96000000000004" as="sourcePoint" />
            <mxPoint x="320" y="340" as="targetPoint" />
          </mxGeometry>
        </mxCell>
        <mxCell id="58K5-g8gVqhy0GrbCxnm-4" value="" style="rounded=0;whiteSpace=wrap;html=1;strokeColor=none;" parent="1" vertex="1">
          <mxGeometry x="120" y="338" width="500.00000000000006" height="4" as="geometry" />
        </mxCell>
        <mxCell id="lTmDRrwS3Fb5ej10DpKZ-10" value="Certificate rotation" style="rounded=0;whiteSpace=wrap;html=1;strokeColor=#666666;" parent="1" vertex="1">
          <mxGeometry x="320" y="330" width="100" height="20" as="geometry" />
        </mxCell>
        <mxCell id="lTmDRrwS3Fb5ej10DpKZ-9" value="" style="endArrow=none;html=1;rounded=0;shape=link;strokeColor=#666666;" parent="1" source="58K5-g8gVqhy0GrbCxnm-4" target="lTmDRrwS3Fb5ej10DpKZ-10" edge="1">
          <mxGeometry width="50" height="50" relative="1" as="geometry">
            <mxPoint x="120" y="339.96000000000004" as="sourcePoint" />
            <mxPoint x="620" y="339.96000000000004" as="targetPoint" />
          </mxGeometry>
        </mxCell>
        <mxCell id="58K5-g8gVqhy0GrbCxnm-6" value="" style="endArrow=none;html=1;rounded=0;shape=link;strokeColor=#666666;" parent="1" edge="1">
          <mxGeometry width="50" height="50" relative="1" as="geometry">
            <mxPoint x="320" y="339.8" as="sourcePoint" />
            <mxPoint x="120" y="339.8" as="targetPoint" />
          </mxGeometry>
        </mxCell>
        <mxCell id="lTmDRrwS3Fb5ej10DpKZ-3" value="" style="group" parent="1" vertex="1" connectable="0">
          <mxGeometry x="120" y="146" width="500" height="4" as="geometry" />
        </mxCell>
        <mxCell id="lTmDRrwS3Fb5ej10DpKZ-2" value="" style="rounded=0;whiteSpace=wrap;html=1;strokeColor=none;" parent="lTmDRrwS3Fb5ej10DpKZ-3" vertex="1">
          <mxGeometry width="500.00000000000006" height="4" as="geometry" />
        </mxCell>
        <mxCell id="lTmDRrwS3Fb5ej10DpKZ-7" value="" style="endArrow=none;html=1;rounded=0;shape=link;strokeColor=#666666;" parent="1" target="lTmDRrwS3Fb5ej10DpKZ-6" edge="1">
          <mxGeometry width="50" height="50" relative="1" as="geometry">
            <mxPoint x="120" y="147.96" as="sourcePoint" />
            <mxPoint x="620" y="147.96" as="targetPoint" />
          </mxGeometry>
        </mxCell>
        <mxCell id="lTmDRrwS3Fb5ej10DpKZ-6" value="CSR request" style="rounded=0;whiteSpace=wrap;html=1;strokeColor=#666666;" parent="1" vertex="1">
          <mxGeometry x="330" y="138" width="80" height="20" as="geometry" />
        </mxCell>
        <mxCell id="lTmDRrwS3Fb5ej10DpKZ-1" value="" style="endArrow=none;html=1;rounded=0;shape=link;strokeColor=#666666;" parent="1" source="lTmDRrwS3Fb5ej10DpKZ-6" edge="1">
          <mxGeometry width="50" height="50" relative="1" as="geometry">
            <mxPoint x="120" y="147.96" as="sourcePoint" />
            <mxPoint x="620" y="147.96" as="targetPoint" />
          </mxGeometry>
        </mxCell>
      </root>
    </mxGraphModel>
  </diagram>
</mxfile>
